<svg xmlns="http://www.w3.org/2000/svg" width="52.967" height="52.968" viewBox="0 0 52.967 52.968">
  <g id="Page-1" transform="translate(0 0)">
    <g id="Dribbble-Light-Preview">
      <g id="icons">
        <path id="shopping_cart-_1135_" data-name="shopping_cart-[#1135]" d="M208.616,3006.67H172.352a2.647,2.647,0,0,1-2.622-3.022l3.027-21.187a2.647,2.647,0,0,1,2.622-2.274h1.862v5.3a2.648,2.648,0,1,0,5.3,0v-5.3h15.89v5.3a2.648,2.648,0,1,0,5.3,0v-5.3h1.864a2.647,2.647,0,0,1,2.622,2.274l3.027,21.187a2.648,2.648,0,0,1-2.622,3.022Zm-26.079-34.429a7.954,7.954,0,0,1,7.945-7.945c4.383,0,7.945,2.649,7.945,7.945v2.648h-15.89Zm34.376,33.68-3.785-26.483a5.3,5.3,0,0,0-5.244-4.548h-4.161v-2.648A12.862,12.862,0,0,0,190.482,2959a13.259,13.259,0,0,0-13.242,13.242v2.648h-3.35c-2.635,0-5.681,1.939-6.054,4.548l-3.782,26.483a5.3,5.3,0,0,0,5.244,6.046h42.372a5.3,5.3,0,0,0,5.244-6.046Z" transform="translate(-164 -2959)" fill="#f8cd3b" fill-rule="evenodd"/>
      </g>
    </g>
  </g>
</svg>
